<?xml version="1.0" encoding="UTF-8" standalone="no"?>
<!-- Created with Inkscape (http://www.inkscape.org/) -->

<svg
   width="208.43953mm"
   height="79.874908mm"
   viewBox="0 0 208.43953 79.874907"
   version="1.1"
   id="svg1"
   xml:space="preserve"
   xmlns:xlink="http://www.w3.org/1999/xlink"
   xmlns="http://www.w3.org/2000/svg"
   xmlns:svg="http://www.w3.org/2000/svg"><defs
     id="defs1"><linearGradient
       id="linearGradient80"><stop
         style="stop-color:#f06f00;stop-opacity:0.64999998;"
         offset="0"
         id="stop80" /><stop
         style="stop-color:#ffff65;stop-opacity:0.49803922;"
         offset="0.50344825"
         id="stop82" /><stop
         style="stop-color:#b700c3;stop-opacity:0.64999998;"
         offset="1"
         id="stop81" /></linearGradient><linearGradient
       xlink:href="#linearGradient80"
       id="linearGradient81"
       x1="0.45853889"
       y1="202.33119"
       x2="208.89806"
       y2="202.33119"
       gradientUnits="userSpaceOnUse" /></defs><g
     id="layer1"
     transform="translate(-0.45851406,-162.39373)"><g
       id="g82"><rect
         style="fill:url(#linearGradient81);fill-opacity:1;stroke:#000000;stroke-width:0.488"
         id="rect80"
         width="207.95151"
         height="79.386894"
         x="0.70253891"
         y="162.63774" /><g
         id="g2"
         transform="matrix(0.07679846,0,0,0.07679846,161.80513,202.98919)"><path
           fill="none"
           stroke-width="10"
           stroke-linecap="butt"
           stroke-linejoin="miter"
           stroke="#000000"
           stroke-opacity="1"
           stroke-dasharray="10, 20"
           stroke-miterlimit="2"
           d="M 474.16797,225 300,50.832031"
           id="path2-839" /><path
           fill="none"
           stroke-width="10"
           stroke-linecap="butt"
           stroke-linejoin="miter"
           stroke="#000000"
           stroke-opacity="1"
           stroke-dasharray="10, 20"
           stroke-miterlimit="2"
           d="M 474.16797,225 H 125.83203"
           id="path3-05" /><path
           fill="none"
           stroke-width="10"
           stroke-linecap="butt"
           stroke-linejoin="miter"
           stroke="#000000"
           stroke-opacity="1"
           stroke-dasharray="10, 20"
           stroke-miterlimit="2"
           d="M 474.16797,225 300,399.16797"
           id="path4-2" /><path
           fill="none"
           stroke-width="10"
           stroke-linecap="butt"
           stroke-linejoin="miter"
           stroke="#000000"
           stroke-opacity="1"
           stroke-dasharray="10, 20"
           stroke-miterlimit="2"
           d="M 300,50.832031 125.83203,225"
           id="path5-27" /><path
           fill="none"
           stroke-width="10"
           stroke-linecap="butt"
           stroke-linejoin="miter"
           stroke="#000000"
           stroke-opacity="1"
           stroke-dasharray="10, 20"
           stroke-miterlimit="2"
           d="M 300,50.832031 V 399.16797"
           id="path6-3" /><path
           fill="none"
           stroke-width="10"
           stroke-linecap="butt"
           stroke-linejoin="miter"
           stroke="#000000"
           stroke-opacity="1"
           stroke-dasharray="10, 20"
           stroke-miterlimit="2"
           d="M 125.83203,225 300,399.16797"
           id="path7-79" /><path
           fill-rule="nonzero"
           fill="#000000"
           fill-opacity="1"
           d="m 495.31641,225 c 0,-11.67969 -9.46875,-21.14844 -21.14844,-21.14844 -11.6836,0 -21.15235,9.46875 -21.15235,21.14844 0,11.67969 9.46875,21.14844 21.15235,21.14844 11.67969,0 21.14844,-9.46875 21.14844,-21.14844 z m 0,0"
           id="path8-02" /><path
           fill-rule="nonzero"
           fill="#000000"
           fill-opacity="1"
           d="m 321.14844,50.832031 c 0,-11.679687 -9.46875,-21.148437 -21.14844,-21.148437 -11.67969,0 -21.14844,9.46875 -21.14844,21.148437 0,11.683594 9.46875,21.152344 21.14844,21.152344 11.67969,0 21.14844,-9.46875 21.14844,-21.152344 z m 0,0"
           id="path9-39" /><path
           fill-rule="nonzero"
           fill="#000000"
           fill-opacity="1"
           d="m 146.98437,225 c 0,-11.67969 -9.46875,-21.14844 -21.15234,-21.14844 -11.67969,0 -21.14844,9.46875 -21.14844,21.14844 0,11.67969 9.46875,21.14844 21.14844,21.14844 11.68359,0 21.15234,-9.46875 21.15234,-21.14844 z m 0,0"
           id="path10-97" /><path
           fill-rule="nonzero"
           fill="#000000"
           fill-opacity="1"
           d="m 321.14844,399.16797 c 0,-11.6836 -9.46875,-21.15235 -21.14844,-21.15235 -11.67969,0 -21.14844,9.46875 -21.14844,21.15235 0,11.67969 9.46875,21.14844 21.14844,21.14844 11.67969,0 21.14844,-9.46875 21.14844,-21.14844 z m 0,0"
           id="path11-03" /></g><g
         id="g52"
         transform="matrix(0.07679846,0,0,0.07679846,161.80513,165.05169)"><path
           fill="none"
           stroke-width="10"
           stroke-linecap="butt"
           stroke-linejoin="miter"
           stroke="#000000"
           stroke-opacity="1"
           stroke-dasharray="10, 20"
           stroke-miterlimit="2"
           d="M 474.16797,225 300,50.832031"
           id="path2-5" /><path
           fill="none"
           stroke-width="10"
           stroke-linecap="butt"
           stroke-linejoin="miter"
           stroke="#000000"
           stroke-opacity="1"
           stroke-dasharray="10, 20"
           stroke-miterlimit="2"
           d="M 474.16797,225 H 125.83203"
           id="path3-81" /><path
           fill="none"
           stroke-width="10"
           stroke-linecap="butt"
           stroke-linejoin="miter"
           stroke="#000000"
           stroke-opacity="1"
           stroke-miterlimit="2"
           d="M 474.16797,225 300,399.16797"
           id="path4-4" /><path
           fill="none"
           stroke-width="10"
           stroke-linecap="butt"
           stroke-linejoin="miter"
           stroke="#000000"
           stroke-opacity="1"
           stroke-dasharray="10, 20"
           stroke-miterlimit="2"
           d="M 300,50.832031 125.83203,225"
           id="path5-71" /><path
           fill="none"
           stroke-width="10"
           stroke-linecap="butt"
           stroke-linejoin="miter"
           stroke="#000000"
           stroke-opacity="1"
           stroke-miterlimit="2"
           d="M 300,50.832031 V 399.16797"
           id="path6-38" /><path
           fill="none"
           stroke-width="10"
           stroke-linecap="butt"
           stroke-linejoin="miter"
           stroke="#000000"
           stroke-opacity="1"
           stroke-miterlimit="2"
           d="M 125.83203,225 300,399.16797"
           id="path7-4" /><path
           fill-rule="nonzero"
           fill="#000000"
           fill-opacity="1"
           d="m 495.31641,225 c 0,-11.67969 -9.46875,-21.14844 -21.14844,-21.14844 -11.6836,0 -21.15235,9.46875 -21.15235,21.14844 0,11.67969 9.46875,21.14844 21.15235,21.14844 11.67969,0 21.14844,-9.46875 21.14844,-21.14844 z m 0,0"
           id="path8-80" /><path
           fill-rule="nonzero"
           fill="#000000"
           fill-opacity="1"
           d="m 321.14844,50.832031 c 0,-11.679687 -9.46875,-21.148437 -21.14844,-21.148437 -11.67969,0 -21.14844,9.46875 -21.14844,21.148437 0,11.683594 9.46875,21.152344 21.14844,21.152344 11.67969,0 21.14844,-9.46875 21.14844,-21.152344 z m 0,0"
           id="path9-46" /><path
           fill-rule="nonzero"
           fill="#000000"
           fill-opacity="1"
           d="m 146.98437,225 c 0,-11.67969 -9.46875,-21.14844 -21.15234,-21.14844 -11.67969,0 -21.14844,9.46875 -21.14844,21.14844 0,11.67969 9.46875,21.14844 21.14844,21.14844 11.68359,0 21.15234,-9.46875 21.15234,-21.14844 z m 0,0"
           id="path10-03" /><path
           fill-rule="nonzero"
           fill="#000000"
           fill-opacity="1"
           d="m 321.14844,399.16797 c 0,-11.6836 -9.46875,-21.15235 -21.14844,-21.15235 -11.67969,0 -21.14844,9.46875 -21.14844,21.15235 0,11.67969 9.46875,21.14844 21.14844,21.14844 11.67969,0 21.14844,-9.46875 21.14844,-21.14844 z m 0,0"
           id="path11-26" /></g><g
         id="g53"
         transform="matrix(0.07679846,0,0,0.07679846,142.21299,184.0685)"><path
           fill="none"
           stroke-width="10"
           stroke-linecap="butt"
           stroke-linejoin="miter"
           stroke="#000000"
           stroke-opacity="1"
           stroke-dasharray="10, 20"
           stroke-miterlimit="2"
           d="M 474.16797,225 300,50.832031"
           id="path2-838" /><path
           fill="none"
           stroke-width="10"
           stroke-linecap="butt"
           stroke-linejoin="miter"
           stroke="#000000"
           stroke-opacity="1"
           stroke-miterlimit="2"
           d="M 474.16797,225 H 125.83203"
           id="path3-1" /><path
           fill="none"
           stroke-width="10"
           stroke-linecap="butt"
           stroke-linejoin="miter"
           stroke="#000000"
           stroke-opacity="1"
           stroke-miterlimit="2"
           d="M 474.16797,225 300,399.16797"
           id="path4-53" /><path
           fill="none"
           stroke-width="10"
           stroke-linecap="butt"
           stroke-linejoin="miter"
           stroke="#000000"
           stroke-opacity="1"
           stroke-miterlimit="2"
           d="M 300,50.832031 125.83203,225"
           id="path5-5" /><path
           fill="none"
           stroke-width="10"
           stroke-linecap="butt"
           stroke-linejoin="miter"
           stroke="#000000"
           stroke-opacity="1"
           stroke-miterlimit="2"
           d="M 300,50.832031 V 399.16797"
           id="path6-4" /><path
           fill="none"
           stroke-width="10"
           stroke-linecap="butt"
           stroke-linejoin="miter"
           stroke="#000000"
           stroke-opacity="1"
           stroke-dasharray="10, 20"
           stroke-miterlimit="2"
           d="M 125.83203,225 300,399.16797"
           id="path7-36" /><path
           fill-rule="nonzero"
           fill="#000000"
           fill-opacity="1"
           d="m 495.31641,225 c 0,-11.67969 -9.46875,-21.14844 -21.14844,-21.14844 -11.6836,0 -21.15235,9.46875 -21.15235,21.14844 0,11.67969 9.46875,21.14844 21.15235,21.14844 11.67969,0 21.14844,-9.46875 21.14844,-21.14844 z m 0,0"
           id="path8-5" /><path
           fill-rule="nonzero"
           fill="#000000"
           fill-opacity="1"
           d="m 321.14844,50.832031 c 0,-11.679687 -9.46875,-21.148437 -21.14844,-21.148437 -11.67969,0 -21.14844,9.46875 -21.14844,21.148437 0,11.683594 9.46875,21.152344 21.14844,21.152344 11.67969,0 21.14844,-9.46875 21.14844,-21.152344 z m 0,0"
           id="path9-95" /><path
           fill-rule="nonzero"
           fill="#000000"
           fill-opacity="1"
           d="m 146.98437,225 c 0,-11.67969 -9.46875,-21.14844 -21.15234,-21.14844 -11.67969,0 -21.14844,9.46875 -21.14844,21.14844 0,11.67969 9.46875,21.14844 21.14844,21.14844 11.68359,0 21.15234,-9.46875 21.15234,-21.14844 z m 0,0"
           id="path10-49" /><path
           fill-rule="nonzero"
           fill="#000000"
           fill-opacity="1"
           d="m 321.14844,399.16797 c 0,-11.6836 -9.46875,-21.15235 -21.14844,-21.15235 -11.67969,0 -21.14844,9.46875 -21.14844,21.15235 0,11.67969 9.46875,21.14844 21.14844,21.14844 11.67969,0 21.14844,-9.46875 21.14844,-21.14844 z m 0,0"
           id="path11-17" /></g><g
         id="g54"
         transform="matrix(0.07679845,0,0,0.07679845,164.98026,87.692897)"><path
           fill="none"
           stroke-width="10"
           stroke-linecap="butt"
           stroke-linejoin="miter"
           stroke="#000000"
           stroke-opacity="1"
           stroke-dasharray="10, 20"
           stroke-miterlimit="2"
           d="M -867.08954,1230.9431 -1041.2575,1056.7752"
           id="path2-52" /><path
           fill="none"
           stroke-width="10"
           stroke-linecap="butt"
           stroke-linejoin="miter"
           stroke="#000000"
           stroke-opacity="1"
           stroke-miterlimit="2"
           d="M -867.08954,1230.9431 H -1215.4255"
           id="path3-26" /><path
           fill="none"
           stroke-width="10"
           stroke-linecap="butt"
           stroke-linejoin="miter"
           stroke="#000000"
           stroke-opacity="1"
           stroke-miterlimit="2"
           d="m -867.08954,1230.9431 -174.16796,174.168"
           id="path4-6" /><path
           fill="none"
           stroke-width="10"
           stroke-linecap="butt"
           stroke-linejoin="miter"
           stroke="#000000"
           stroke-opacity="1"
           stroke-miterlimit="2"
           d="m -1041.2575,1056.7752 -174.168,174.1679"
           id="path5-78" /><path
           fill="none"
           stroke-width="10"
           stroke-linecap="butt"
           stroke-linejoin="miter"
           stroke="#000000"
           stroke-opacity="1"
           stroke-miterlimit="2"
           d="m -1041.2575,1056.7752 v 348.3359"
           id="path6-41" /><path
           fill="none"
           stroke-width="10"
           stroke-linecap="butt"
           stroke-linejoin="miter"
           stroke="#000000"
           stroke-opacity="1"
           stroke-miterlimit="2"
           d="m -1215.4255,1230.9431 174.168,174.168"
           id="path7-71" /><path
           fill-rule="nonzero"
           fill="#000000"
           fill-opacity="1"
           d="m -845.9411,1230.9431 c 0,-11.6797 -9.46875,-21.1484 -21.14844,-21.1484 -11.6836,0 -21.15235,9.4687 -21.15235,21.1484 0,11.6797 9.46875,21.1485 21.15235,21.1485 11.67969,0 21.14844,-9.4688 21.14844,-21.1485 z m 0,0"
           id="path8-87" /><path
           fill-rule="nonzero"
           fill="#000000"
           fill-opacity="1"
           d="m -1020.1091,1056.7752 c 0,-11.6797 -9.4687,-21.1485 -21.1484,-21.1485 -11.6797,0 -21.1485,9.4688 -21.1485,21.1485 0,11.6836 9.4688,21.1523 21.1485,21.1523 11.6797,0 21.1484,-9.4687 21.1484,-21.1523 z m 0,0"
           id="path9-87" /><path
           fill-rule="nonzero"
           fill="#000000"
           fill-opacity="1"
           d="m -1194.2731,1230.9431 c 0,-11.6797 -9.4688,-21.1484 -21.1524,-21.1484 -11.6797,0 -21.1484,9.4687 -21.1484,21.1484 0,11.6797 9.4687,21.1485 21.1484,21.1485 11.6836,0 21.1524,-9.4688 21.1524,-21.1485 z m 0,0"
           id="path10-7" /><path
           fill-rule="nonzero"
           fill="#000000"
           fill-opacity="1"
           d="m -1020.1091,1405.1111 c 0,-11.6836 -9.4687,-21.1523 -21.1484,-21.1523 -11.6797,0 -21.1485,9.4687 -21.1485,21.1523 0,11.6797 9.4688,21.1484 21.1485,21.1484 11.6797,0 21.1484,-9.4687 21.1484,-21.1484 z m 0,0"
           id="path11-44" /></g><g
         id="g55"
         transform="matrix(0.07679845,0,0,0.07679845,102.03526,164.95952)"><path
           fill="none"
           stroke-width="10"
           stroke-linecap="butt"
           stroke-linejoin="miter"
           stroke="#000000"
           stroke-opacity="1"
           stroke-dasharray="10, 20"
           stroke-miterlimit="2"
           d="M 474.16797,225 300,50.832031"
           id="path2-7" /><path
           fill="none"
           stroke-width="10"
           stroke-linecap="butt"
           stroke-linejoin="miter"
           stroke="#000000"
           stroke-opacity="1"
           stroke-dasharray="10, 20"
           stroke-miterlimit="2"
           d="M 474.16797,225 H 125.83203"
           id="path3-4" /><path
           fill="none"
           stroke-width="10"
           stroke-linecap="butt"
           stroke-linejoin="miter"
           stroke="#000000"
           stroke-opacity="1"
           stroke-miterlimit="2"
           d="M 474.16797,225 300,399.16797"
           id="path4-85" /><path
           fill="none"
           stroke-width="10"
           stroke-linecap="butt"
           stroke-linejoin="miter"
           stroke="#000000"
           stroke-opacity="1"
           stroke-miterlimit="2"
           d="M 300,50.832031 125.83203,225"
           id="path5-83" /><path
           fill="none"
           stroke-width="10"
           stroke-linecap="butt"
           stroke-linejoin="miter"
           stroke="#000000"
           stroke-opacity="1"
           stroke-miterlimit="2"
           d="M 300,50.832031 V 399.16797"
           id="path6-06" /><path
           fill="none"
           stroke-width="10"
           stroke-linecap="butt"
           stroke-linejoin="miter"
           stroke="#000000"
           stroke-opacity="1"
           stroke-miterlimit="2"
           d="M 125.83203,225 300,399.16797"
           id="path7-22" /><path
           fill-rule="nonzero"
           fill="#000000"
           fill-opacity="1"
           d="m 495.31641,225 c 0,-11.67969 -9.46875,-21.14844 -21.14844,-21.14844 -11.6836,0 -21.15235,9.46875 -21.15235,21.14844 0,11.67969 9.46875,21.14844 21.15235,21.14844 11.67969,0 21.14844,-9.46875 21.14844,-21.14844 z m 0,0"
           id="path8-52" /><path
           fill-rule="nonzero"
           fill="#000000"
           fill-opacity="1"
           d="m 321.14844,50.832031 c 0,-11.679687 -9.46875,-21.148437 -21.14844,-21.148437 -11.67969,0 -21.14844,9.46875 -21.14844,21.148437 0,11.683594 9.46875,21.152344 21.14844,21.152344 11.67969,0 21.14844,-9.46875 21.14844,-21.152344 z m 0,0"
           id="path9-27" /><path
           fill-rule="nonzero"
           fill="#000000"
           fill-opacity="1"
           d="m 146.98437,225 c 0,-11.67969 -9.46875,-21.14844 -21.15234,-21.14844 -11.67969,0 -21.14844,9.46875 -21.14844,21.14844 0,11.67969 9.46875,21.14844 21.14844,21.14844 11.68359,0 21.15234,-9.46875 21.15234,-21.14844 z m 0,0"
           id="path10-1" /><path
           fill-rule="nonzero"
           fill="#000000"
           fill-opacity="1"
           d="m 321.14844,399.16797 c 0,-11.6836 -9.46875,-21.15235 -21.14844,-21.15235 -11.67969,0 -21.14844,9.46875 -21.14844,21.15235 0,11.67969 9.46875,21.14844 21.14844,21.14844 11.67969,0 21.14844,-9.46875 21.14844,-21.14844 z m 0,0"
           id="path11-5" /></g><g
         id="g60"
         transform="matrix(0.07679846,0,0,0.07679846,61.973763,202.88528)"><path
           fill="none"
           stroke-width="10"
           stroke-linecap="butt"
           stroke-linejoin="miter"
           stroke="#000000"
           stroke-opacity="1"
           stroke-miterlimit="2"
           d="M 474.16797,225 300,50.832031"
           id="path2-600" /><path
           fill="none"
           stroke-width="10"
           stroke-linecap="butt"
           stroke-linejoin="miter"
           stroke="#000000"
           stroke-opacity="1"
           stroke-dasharray="10, 20"
           stroke-miterlimit="2"
           d="M 474.16797,225 H 125.83203"
           id="path3-95" /><path
           fill="none"
           stroke-width="10"
           stroke-linecap="butt"
           stroke-linejoin="miter"
           stroke="#000000"
           stroke-opacity="1"
           stroke-dasharray="10, 20"
           stroke-miterlimit="2"
           d="M 474.16797,225 300,399.16797"
           id="path4-62" /><path
           fill="none"
           stroke-width="10"
           stroke-linecap="butt"
           stroke-linejoin="miter"
           stroke="#000000"
           stroke-opacity="1"
           stroke-dasharray="10, 20"
           stroke-miterlimit="2"
           d="M 300,50.832031 125.83203,225"
           id="path5-85" /><path
           fill="none"
           stroke-width="10"
           stroke-linecap="butt"
           stroke-linejoin="miter"
           stroke="#000000"
           stroke-opacity="1"
           stroke-dasharray="10, 20"
           stroke-miterlimit="2"
           d="M 300,50.832031 V 399.16797"
           id="path6-94" /><path
           fill="none"
           stroke-width="10"
           stroke-linecap="butt"
           stroke-linejoin="miter"
           stroke="#000000"
           stroke-opacity="1"
           stroke-dasharray="10, 20"
           stroke-miterlimit="2"
           d="M 125.83203,225 300,399.16797"
           id="path7-39" /><path
           fill-rule="nonzero"
           fill="#000000"
           fill-opacity="1"
           d="m 495.31641,225 c 0,-11.67969 -9.46875,-21.14844 -21.14844,-21.14844 -11.6836,0 -21.15235,9.46875 -21.15235,21.14844 0,11.67969 9.46875,21.14844 21.15235,21.14844 11.67969,0 21.14844,-9.46875 21.14844,-21.14844 z m 0,0"
           id="path8-05" /><path
           fill-rule="nonzero"
           fill="#000000"
           fill-opacity="1"
           d="m 321.14844,50.832031 c 0,-11.679687 -9.46875,-21.148437 -21.14844,-21.148437 -11.67969,0 -21.14844,9.46875 -21.14844,21.148437 0,11.683594 9.46875,21.152344 21.14844,21.152344 11.67969,0 21.14844,-9.46875 21.14844,-21.152344 z m 0,0"
           id="path9-6" /><path
           fill-rule="nonzero"
           fill="#000000"
           fill-opacity="1"
           d="m 146.98437,225 c 0,-11.67969 -9.46875,-21.14844 -21.15234,-21.14844 -11.67969,0 -21.14844,9.46875 -21.14844,21.14844 0,11.67969 9.46875,21.14844 21.14844,21.14844 11.68359,0 21.15234,-9.46875 21.15234,-21.14844 z m 0,0"
           id="path10-3" /><path
           fill-rule="nonzero"
           fill="#000000"
           fill-opacity="1"
           d="m 321.14844,399.16797 c 0,-11.6836 -9.46875,-21.15235 -21.14844,-21.15235 -11.67969,0 -21.14844,9.46875 -21.14844,21.15235 0,11.67969 9.46875,21.14844 21.14844,21.14844 11.67969,0 21.14844,-9.46875 21.14844,-21.14844 z m 0,0"
           id="path11-6" /></g><g
         id="g61"
         transform="matrix(0.07679846,0,0,0.07679846,82.379856,183.85264)"><path
           fill="none"
           stroke-width="10"
           stroke-linecap="butt"
           stroke-linejoin="miter"
           stroke="#000000"
           stroke-opacity="1"
           stroke-dasharray="10, 20"
           stroke-miterlimit="2"
           d="M 474.16797,225 300,50.832031"
           id="path2-64" /><path
           fill="none"
           stroke-width="10"
           stroke-linecap="butt"
           stroke-linejoin="miter"
           stroke="#000000"
           stroke-opacity="1"
           stroke-dasharray="10, 20"
           stroke-miterlimit="2"
           d="M 474.16797,225 H 125.83203"
           id="path3-6" /><path
           fill="none"
           stroke-width="10"
           stroke-linecap="butt"
           stroke-linejoin="miter"
           stroke="#000000"
           stroke-opacity="1"
           stroke-miterlimit="2"
           d="M 474.16797,225 300,399.16797"
           id="path4-43" /><path
           fill="none"
           stroke-width="10"
           stroke-linecap="butt"
           stroke-linejoin="miter"
           stroke="#000000"
           stroke-opacity="1"
           stroke-miterlimit="2"
           d="M 300,50.832031 125.83203,225"
           id="path5-84" /><path
           fill="none"
           stroke-width="10"
           stroke-linecap="butt"
           stroke-linejoin="miter"
           stroke="#000000"
           stroke-opacity="1"
           stroke-dasharray="10, 20"
           stroke-miterlimit="2"
           d="M 300,50.832031 V 399.16797"
           id="path6-009" /><path
           fill="none"
           stroke-width="10"
           stroke-linecap="butt"
           stroke-linejoin="miter"
           stroke="#000000"
           stroke-opacity="1"
           stroke-miterlimit="2"
           d="M 125.83203,225 300,399.16797"
           id="path7-37" /><path
           fill-rule="nonzero"
           fill="#000000"
           fill-opacity="1"
           d="m 495.31641,225 c 0,-11.67969 -9.46875,-21.14844 -21.14844,-21.14844 -11.6836,0 -21.15235,9.46875 -21.15235,21.14844 0,11.67969 9.46875,21.14844 21.15235,21.14844 11.67969,0 21.14844,-9.46875 21.14844,-21.14844 z m 0,0"
           id="path8-57" /><path
           fill-rule="nonzero"
           fill="#000000"
           fill-opacity="1"
           d="m 321.14844,50.832031 c 0,-11.679687 -9.46875,-21.148437 -21.14844,-21.148437 -11.67969,0 -21.14844,9.46875 -21.14844,21.148437 0,11.683594 9.46875,21.152344 21.14844,21.152344 11.67969,0 21.14844,-9.46875 21.14844,-21.152344 z m 0,0"
           id="path9-29" /><path
           fill-rule="nonzero"
           fill="#000000"
           fill-opacity="1"
           d="m 146.98437,225 c 0,-11.67969 -9.46875,-21.14844 -21.15234,-21.14844 -11.67969,0 -21.14844,9.46875 -21.14844,21.14844 0,11.67969 9.46875,21.14844 21.14844,21.14844 11.68359,0 21.15234,-9.46875 21.15234,-21.14844 z m 0,0"
           id="path10-75" /><path
           fill-rule="nonzero"
           fill="#000000"
           fill-opacity="1"
           d="m 321.14844,399.16797 c 0,-11.6836 -9.46875,-21.15235 -21.14844,-21.15235 -11.67969,0 -21.14844,9.46875 -21.14844,21.15235 0,11.67969 9.46875,21.14844 21.14844,21.14844 11.67969,0 21.14844,-9.46875 21.14844,-21.14844 z m 0,0"
           id="path11-65" /></g><g
         id="g76"
         transform="matrix(0.07679845,0,0,0.07679845,143.08866,90.560219)"><path
           fill="none"
           stroke-width="10"
           stroke-linecap="butt"
           stroke-linejoin="miter"
           stroke="#000000"
           stroke-opacity="1"
           stroke-miterlimit="2"
           d="M -60.391184,1687.7482 -234.55915,1513.5803"
           id="path2-42" /><path
           fill="none"
           stroke-width="10"
           stroke-linecap="butt"
           stroke-linejoin="miter"
           stroke="#000000"
           stroke-opacity="1"
           stroke-miterlimit="2"
           d="M -60.391184,1687.7482 H -408.72712"
           id="path3-19" /><path
           fill="none"
           stroke-width="10"
           stroke-linecap="butt"
           stroke-linejoin="miter"
           stroke="#000000"
           stroke-opacity="1"
           stroke-dasharray="10, 20"
           stroke-miterlimit="2"
           d="m -60.391184,1687.7482 -174.167966,174.168"
           id="path4-24" /><path
           fill="none"
           stroke-width="10"
           stroke-linecap="butt"
           stroke-linejoin="miter"
           stroke="#000000"
           stroke-opacity="1"
           stroke-dasharray="10, 20"
           stroke-miterlimit="2"
           d="m -234.55915,1513.5803 -174.16797,174.1679"
           id="path5-58" /><path
           fill="none"
           stroke-width="10"
           stroke-linecap="butt"
           stroke-linejoin="miter"
           stroke="#000000"
           stroke-opacity="1"
           stroke-dasharray="10, 20"
           stroke-miterlimit="2"
           d="m -234.55915,1513.5803 v 348.3359"
           id="path6-62" /><path
           fill="none"
           stroke-width="10"
           stroke-linecap="butt"
           stroke-linejoin="miter"
           stroke="#000000"
           stroke-opacity="1"
           stroke-dasharray="10, 20"
           stroke-miterlimit="2"
           d="m -408.72712,1687.7482 174.16797,174.168"
           id="path7-51" /><path
           fill-rule="nonzero"
           fill="#000000"
           fill-opacity="1"
           d="m -39.242744,1687.7482 c 0,-11.6797 -9.46875,-21.1484 -21.14844,-21.1484 -11.6836,0 -21.15235,9.4687 -21.15235,21.1484 0,11.6797 9.46875,21.1485 21.15235,21.1485 11.67969,0 21.14844,-9.4688 21.14844,-21.1485 z m 0,0"
           id="path8-39" /><path
           fill-rule="nonzero"
           fill="#000000"
           fill-opacity="1"
           d="m -213.41071,1513.5803 c 0,-11.6797 -9.46875,-21.1485 -21.14844,-21.1485 -11.67969,0 -21.14844,9.4688 -21.14844,21.1485 0,11.6836 9.46875,21.1523 21.14844,21.1523 11.67969,0 21.14844,-9.4687 21.14844,-21.1523 z m 0,0"
           id="path9-7" /><path
           fill-rule="nonzero"
           fill="#000000"
           fill-opacity="1"
           d="m -387.57478,1687.7482 c 0,-11.6797 -9.46875,-21.1484 -21.15234,-21.1484 -11.67969,0 -21.14844,9.4687 -21.14844,21.1484 0,11.6797 9.46875,21.1485 21.14844,21.1485 11.68359,0 21.15234,-9.4688 21.15234,-21.1485 z m 0,0"
           id="path10-37" /><path
           fill-rule="nonzero"
           fill="#000000"
           fill-opacity="1"
           d="m -213.41071,1861.9162 c 0,-11.6836 -9.46875,-21.1523 -21.14844,-21.1523 -11.67969,0 -21.14844,9.4687 -21.14844,21.1523 0,11.6797 9.46875,21.1484 21.14844,21.1484 11.67969,0 21.14844,-9.4687 21.14844,-21.1484 z m 0,0"
           id="path11-50" /></g><g
         id="g77"
         transform="matrix(0.07679846,0,0,0.07679846,4.806866,165.24349)"><path
           fill="none"
           stroke-width="10"
           stroke-linecap="butt"
           stroke-linejoin="miter"
           stroke="#000000"
           stroke-opacity="1"
           stroke-miterlimit="2"
           d="M 474.16797,225 300,50.832031"
           id="path2-79" /><path
           fill="none"
           stroke-width="10"
           stroke-linecap="butt"
           stroke-linejoin="miter"
           stroke="#000000"
           stroke-opacity="1"
           stroke-miterlimit="2"
           d="M 474.16797,225 H 125.83203"
           id="path3-41" /><path
           fill="none"
           stroke-width="10"
           stroke-linecap="butt"
           stroke-linejoin="miter"
           stroke="#000000"
           stroke-opacity="1"
           stroke-miterlimit="2"
           d="M 474.16797,225 300,399.16797"
           id="path4-61" /><path
           fill="none"
           stroke-width="10"
           stroke-linecap="butt"
           stroke-linejoin="miter"
           stroke="#000000"
           stroke-opacity="1"
           stroke-miterlimit="2"
           d="M 300,50.832031 125.83203,225"
           id="path5-20" /><path
           fill="none"
           stroke-width="10"
           stroke-linecap="butt"
           stroke-linejoin="miter"
           stroke="#000000"
           stroke-opacity="1"
           stroke-miterlimit="2"
           d="M 300,50.832031 V 399.16797"
           id="path6-44" /><path
           fill="none"
           stroke-width="10"
           stroke-linecap="butt"
           stroke-linejoin="miter"
           stroke="#000000"
           stroke-opacity="1"
           stroke-miterlimit="2"
           d="M 125.83203,225 300,399.16797"
           id="path7-59" /><path
           fill-rule="nonzero"
           fill="#000000"
           fill-opacity="1"
           d="m 495.31641,225 c 0,-11.67969 -9.46875,-21.14844 -21.14844,-21.14844 -11.6836,0 -21.15235,9.46875 -21.15235,21.14844 0,11.67969 9.46875,21.14844 21.15235,21.14844 11.67969,0 21.14844,-9.46875 21.14844,-21.14844 z m 0,0"
           id="path8-7" /><path
           fill-rule="nonzero"
           fill="#000000"
           fill-opacity="1"
           d="m 321.14844,50.832031 c 0,-11.679687 -9.46875,-21.148437 -21.14844,-21.148437 -11.67969,0 -21.14844,9.46875 -21.14844,21.148437 0,11.683594 9.46875,21.152344 21.14844,21.152344 11.67969,0 21.14844,-9.46875 21.14844,-21.152344 z m 0,0"
           id="path9-53" /><path
           fill-rule="nonzero"
           fill="#000000"
           fill-opacity="1"
           d="m 146.98437,225 c 0,-11.67969 -9.46875,-21.14844 -21.15234,-21.14844 -11.67969,0 -21.14844,9.46875 -21.14844,21.14844 0,11.67969 9.46875,21.14844 21.14844,21.14844 11.68359,0 21.15234,-9.46875 21.15234,-21.14844 z m 0,0"
           id="path10-90" /><path
           fill-rule="nonzero"
           fill="#000000"
           fill-opacity="1"
           d="m 321.14844,399.16797 c 0,-11.6836 -9.46875,-21.15235 -21.14844,-21.15235 -11.67969,0 -21.14844,9.46875 -21.14844,21.15235 0,11.67969 9.46875,21.14844 21.14844,21.14844 11.67969,0 21.14844,-9.46875 21.14844,-21.14844 z m 0,0"
           id="path11-55" /></g><g
         id="g78"
         transform="matrix(0.07679846,0,0,0.07679846,119.84323,194.34987)"><path
           fill="none"
           stroke-width="10"
           stroke-linecap="butt"
           stroke-linejoin="miter"
           stroke="#000000"
           stroke-opacity="1"
           stroke-miterlimit="2"
           d="M -779.61623,88.930397 -953.7842,-85.237572"
           id="path2-48" /><path
           fill="none"
           stroke-width="10"
           stroke-linecap="butt"
           stroke-linejoin="miter"
           stroke="#000000"
           stroke-opacity="1"
           stroke-dasharray="10, 20"
           stroke-miterlimit="2"
           d="M -779.61623,88.930397 H -1127.9522"
           id="path3-87" /><path
           fill="none"
           stroke-width="10"
           stroke-linecap="butt"
           stroke-linejoin="miter"
           stroke="#000000"
           stroke-opacity="1"
           stroke-dasharray="10, 20"
           stroke-miterlimit="2"
           d="M -779.61623,88.930397 -953.7842,263.09837"
           id="path4-1" /><path
           fill="none"
           stroke-width="10"
           stroke-linecap="butt"
           stroke-linejoin="miter"
           stroke="#000000"
           stroke-opacity="1"
           stroke-dasharray="10, 20"
           stroke-miterlimit="2"
           d="m -953.7842,-85.237572 -174.168,174.167969"
           id="path5-93" /><path
           fill="none"
           stroke-width="10"
           stroke-linecap="butt"
           stroke-linejoin="miter"
           stroke="#000000"
           stroke-opacity="1"
           stroke-dasharray="10, 20"
           stroke-miterlimit="2"
           d="M -953.7842,-85.237572 V 263.09837"
           id="path6-11" /><path
           fill="none"
           stroke-width="10"
           stroke-linecap="butt"
           stroke-linejoin="miter"
           stroke="#000000"
           stroke-opacity="1"
           stroke-miterlimit="2"
           d="m -1127.9522,88.930397 174.168,174.167973"
           id="path7-49" /><path
           fill-rule="nonzero"
           fill="#000000"
           fill-opacity="1"
           d="m -758.46779,88.930397 c 0,-11.67969 -9.46875,-21.14844 -21.14844,-21.14844 -11.6836,0 -21.15235,9.46875 -21.15235,21.14844 0,11.679693 9.46875,21.148443 21.15235,21.148443 11.67969,0 21.14844,-9.46875 21.14844,-21.148443 z m 0,0"
           id="path8-59" /><path
           fill-rule="nonzero"
           fill="#000000"
           fill-opacity="1"
           d="m -932.63576,-85.237572 c 0,-11.679687 -9.46875,-21.148438 -21.14844,-21.148438 -11.67969,0 -21.14844,9.468751 -21.14844,21.148438 0,11.683594 9.46875,21.152344 21.14844,21.152344 11.67969,0 21.14844,-9.46875 21.14844,-21.152344 z m 0,0"
           id="path9-09" /><path
           fill-rule="nonzero"
           fill="#000000"
           fill-opacity="1"
           d="m -1106.7998,88.930397 c 0,-11.67969 -9.4688,-21.14844 -21.1524,-21.14844 -11.6797,0 -21.1484,9.46875 -21.1484,21.14844 0,11.679693 9.4687,21.148443 21.1484,21.148443 11.6836,0 21.1524,-9.46875 21.1524,-21.148443 z m 0,0"
           id="path10-34" /><path
           fill-rule="nonzero"
           fill="#000000"
           fill-opacity="1"
           d="m -932.63576,263.09837 c 0,-11.6836 -9.46875,-21.15235 -21.14844,-21.15235 -11.67969,0 -21.14844,9.46875 -21.14844,21.15235 0,11.67969 9.46875,21.14844 21.14844,21.14844 11.67969,0 21.14844,-9.46875 21.14844,-21.14844 z m 0,0"
           id="path11-07" /></g><g
         id="g79"
         transform="matrix(0.07679846,0,0,0.07679846,4.806866,203.18099)"><path
           fill="none"
           stroke-width="10"
           stroke-linecap="butt"
           stroke-linejoin="miter"
           stroke="#000000"
           stroke-opacity="1"
           stroke-dasharray="10, 20"
           stroke-miterlimit="2"
           d="M 474.16797,225 300,50.832031"
           id="path2-84" /><path
           fill="none"
           stroke-width="10"
           stroke-linecap="butt"
           stroke-linejoin="miter"
           stroke="#000000"
           stroke-opacity="1"
           stroke-dasharray="10, 20"
           stroke-miterlimit="2"
           d="M 474.16797,225 H 125.83203"
           id="path3-00" /><path
           fill="none"
           stroke-width="10"
           stroke-linecap="butt"
           stroke-linejoin="miter"
           stroke="#000000"
           stroke-opacity="1"
           stroke-dasharray="10, 20"
           stroke-miterlimit="2"
           d="M 474.16797,225 300,399.16797"
           id="path4-624" /><path
           fill="none"
           stroke-width="10"
           stroke-linecap="butt"
           stroke-linejoin="miter"
           stroke="#000000"
           stroke-opacity="1"
           stroke-miterlimit="2"
           d="M 300,50.832031 125.83203,225"
           id="path5-74" /><path
           fill="none"
           stroke-width="10"
           stroke-linecap="butt"
           stroke-linejoin="miter"
           stroke="#000000"
           stroke-opacity="1"
           stroke-miterlimit="2"
           d="M 300,50.832031 V 399.16797"
           id="path6-18" /><path
           fill="none"
           stroke-width="10"
           stroke-linecap="butt"
           stroke-linejoin="miter"
           stroke="#000000"
           stroke-opacity="1"
           stroke-miterlimit="2"
           d="M 125.83203,225 300,399.16797"
           id="path7-58" /><path
           fill-rule="nonzero"
           fill="#000000"
           fill-opacity="1"
           d="m 495.31641,225 c 0,-11.67969 -9.46875,-21.14844 -21.14844,-21.14844 -11.6836,0 -21.15235,9.46875 -21.15235,21.14844 0,11.67969 9.46875,21.14844 21.15235,21.14844 11.67969,0 21.14844,-9.46875 21.14844,-21.14844 z m 0,0"
           id="path8-99" /><path
           fill-rule="nonzero"
           fill="#000000"
           fill-opacity="1"
           d="m 321.14844,50.832031 c 0,-11.679687 -9.46875,-21.148437 -21.14844,-21.148437 -11.67969,0 -21.14844,9.46875 -21.14844,21.148437 0,11.683594 9.46875,21.152344 21.14844,21.152344 11.67969,0 21.14844,-9.46875 21.14844,-21.152344 z m 0,0"
           id="path9-93" /><path
           fill-rule="nonzero"
           fill="#000000"
           fill-opacity="1"
           d="m 146.98437,225 c 0,-11.67969 -9.46875,-21.14844 -21.15234,-21.14844 -11.67969,0 -21.14844,9.46875 -21.14844,21.14844 0,11.67969 9.46875,21.14844 21.14844,21.14844 11.68359,0 21.15234,-9.46875 21.15234,-21.14844 z m 0,0"
           id="path10-377" /><path
           fill-rule="nonzero"
           fill="#000000"
           fill-opacity="1"
           d="m 321.14844,399.16797 c 0,-11.6836 -9.46875,-21.15235 -21.14844,-21.15235 -11.67969,0 -21.14844,9.46875 -21.14844,21.15235 0,11.67969 9.46875,21.14844 21.14844,21.14844 11.67969,0 21.14844,-9.46875 21.14844,-21.14844 z m 0,0"
           id="path11-32" /></g></g></g></svg>
